<?xml version="1.0" encoding="UTF-8"?><svg id="Layer_2" xmlns="http://www.w3.org/2000/svg" viewBox="0 0 83.26 83.22"><defs><style>.cls-1{fill:#221e3f;stroke-width:0px;}</style></defs><g id="Layer_1-2"><path class="cls-1" d="M26.12,40.16H0l27.48-12.76L40.2,0l.03,26.03c.01,7.8-6.31,14.14-14.12,14.14Z"/><path class="cls-1" d="M57.14,40.16h26.12s-27.48-12.76-27.48-12.76L43.06,0l-.03,26.03c-.01,7.8,6.31,14.14,14.12,14.14Z"/><path class="cls-1" d="M57.14,43.06h26.12l-27.48,12.76-12.72,27.4-.03-26.03c-.01-7.8,6.31-14.14,14.12-14.14Z"/><path class="cls-1" d="M26.12,43.06H0s27.48,12.76,27.48,12.76l12.72,27.4.03-26.03c.01-7.8-6.31-14.14-14.12-14.14Z"/></g></svg>